<svg width="35" height="32" viewBox="0 0 35 32" fill="none" xmlns="http://www.w3.org/2000/svg">
<mask id="mask0_19_31" style="mask-type:alpha" maskUnits="userSpaceOnUse" x="0" y="0" width="35" height="32">
<rect width="34.6764" height="32" fill="#D9D9D9"/>
</mask>
<g mask="url(#mask0_19_31)">
<path d="M10.8364 25V22.3333H28.1745V25H10.8364ZM10.8364 17V14.3333H28.1745V17H10.8364ZM10.8364 9V6.33333H28.1745V9H10.8364ZM5.05696 26.3333C4.2623 26.3333 3.58201 26.0722 3.01612 25.55C2.45022 25.0278 2.16727 24.4 2.16727 23.6667C2.16727 22.9333 2.45022 22.3056 3.01612 21.7833C3.58201 21.2611 4.2623 21 5.05696 21C5.85163 21 6.53191 21.2611 7.09781 21.7833C7.66371 22.3056 7.94666 22.9333 7.94666 23.6667C7.94666 24.4 7.66371 25.0278 7.09781 25.55C6.53191 26.0722 5.85163 26.3333 5.05696 26.3333ZM5.05696 18.3333C4.2623 18.3333 3.58201 18.0722 3.01612 17.55C2.45022 17.0278 2.16727 16.4 2.16727 15.6667C2.16727 14.9333 2.45022 14.3056 3.01612 13.7833C3.58201 13.2611 4.2623 13 5.05696 13C5.85163 13 6.53191 13.2611 7.09781 13.7833C7.66371 14.3056 7.94666 14.9333 7.94666 15.6667C7.94666 16.4 7.66371 17.0278 7.09781 17.55C6.53191 18.0722 5.85163 18.3333 5.05696 18.3333ZM5.05696 10.3333C4.2623 10.3333 3.58201 10.0722 3.01612 9.55C2.45022 9.02778 2.16727 8.4 2.16727 7.66667C2.16727 6.93333 2.45022 6.30556 3.01612 5.78333C3.58201 5.26111 4.2623 5 5.05696 5C5.85163 5 6.53191 5.26111 7.09781 5.78333C7.66371 6.30556 7.94666 6.93333 7.94666 7.66667C7.94666 8.4 7.66371 9.02778 7.09781 9.55C6.53191 10.0722 5.85163 10.3333 5.05696 10.3333Z" fill="white"/>
</g>
</svg>
