<svg width="35" height="32" viewBox="0 0 35 32" fill="none" xmlns="http://www.w3.org/2000/svg">
<mask id="mask0_19_34" style="mask-type:alpha" maskUnits="userSpaceOnUse" x="0" y="0" width="35" height="32">
<rect width="34.6764" height="32" fill="#D9D9D9"/>
</mask>
<g mask="url(#mask0_19_34)">
<path d="M14.4485 28C12.8592 28 11.4986 27.4778 10.3668 26.4333C9.235 25.3889 8.6691 24.1333 8.6691 22.6667C8.6691 21.2 9.235 19.9444 10.3668 18.9C11.4986 17.8556 12.8592 17.3333 14.4485 17.3333C15.0024 17.3333 15.5141 17.3944 15.9836 17.5167C16.4532 17.6389 16.9047 17.8222 17.3382 18.0667V4H26.0073V9.33333H20.2279V22.6667C20.2279 24.1333 19.662 25.3889 18.5302 26.4333C17.3984 27.4778 16.0378 28 14.4485 28Z" fill="white"/>
</g>
</svg>
